# xmcd CD database file
#
# Track frame offsets:
#	150
#	16965
#	52085
#	73872
#	87110
#	105460
#	128760
#	146105
#	162055
#	179905
#	195750
#	220665
#	255300
#
# Disc length: 3900 seconds
#
# Revision: 8
# Processed by: cddbd v1.5.2PL0 Copyright (c) Steve Scherf et al.
# Submitted via: CDex 1.70beta2
#
DISCID=b10f3a0d
DTITLE=Alabama - Alabama Live
DYEAR=1988
DGENRE=Country
TTITLE0=Can't Keep A Good Man Down (Live)
TTITLE1=Tennessee River (Live)
TTITLE2=Take Me Down (Live)
TTITLE3=Love In The First Degree (Live)
TTITLE4=Red River (Live)
TTITLE5=Dixieland Delight (Live)
TTITLE6=Lady Down On Love (Live)
TTITLE7=If You're Gonna Play In Texas
TTITLE8=Fireworks
TTITLE9=There's No Way - When We Make Love
TTITLE10=Gonna Have A Party
TTITLE11=Can't You See
TTITLE12=My Home's In Alabama
EXTD=YEAR: 1988
EXTT0=
EXTT1=
EXTT2=
EXTT3=
EXTT4=
EXTT5=
EXTT6=
EXTT7=
EXTT8=
EXTT9=
EXTT10=
EXTT11=
EXTT12=
PLAYORDER=
